<svg width="58" height="40" viewBox="0 0 58 40" fill="none" xmlns="http://www.w3.org/2000/svg">
<g clip-path="url(#clip0_42_900)">
<path d="M0 5.27138V3.41114H7.0039V5.27138H0ZM5.58069 13.443C4.6685 13.443 3.91773 13.3242 3.32828 13.0866C2.73883 12.849 2.29732 12.4479 2.00596 11.8831C1.7146 11.3183 1.56887 10.554 1.56887 9.59474L1.58682 0.620787H3.95808L3.94013 9.75836C3.94013 10.2447 4.07013 10.619 4.33235 10.879C4.59458 11.1412 4.96663 11.2712 5.45298 11.2712H7.0039V13.4407H5.58069V13.443Z" fill="white"/>
<path d="M9.13755 13.3153V0H11.6724V7.77041H11.2353C11.2353 6.77306 11.3631 5.92811 11.6186 5.23556C11.8741 4.54302 12.2529 4.01408 12.7594 3.64875C13.2637 3.28343 13.9047 3.10189 14.6846 3.10189H14.7945C15.9264 3.10189 16.7824 3.49187 17.3652 4.26958C17.9479 5.0473 18.2415 6.17912 18.2415 7.66282V13.3175H15.7067V7.4275C15.7067 6.79546 15.5274 6.29567 15.1688 5.93259C14.8102 5.56726 14.3395 5.38572 13.7545 5.38572C13.1337 5.38572 12.6339 5.58967 12.2507 5.99758C11.8674 6.40549 11.6769 6.93666 11.6769 7.59335V13.3197H9.14204L9.13755 13.3153Z" fill="white"/>
<path d="M25.3889 13.6627C24.5372 13.6627 23.793 13.517 23.1543 13.2257C22.5155 12.9343 21.9866 12.5421 21.5675 12.049C21.1484 11.5559 20.8323 11.0068 20.6194 10.3994C20.4065 9.79207 20.3012 9.17125 20.3012 8.53922V8.19182C20.3012 7.53514 20.4065 6.90087 20.6194 6.28676C20.8323 5.67266 21.1484 5.12579 21.5675 4.64617C21.9866 4.16654 22.5065 3.78328 23.1274 3.49641C23.7482 3.21177 24.4654 3.06832 25.279 3.06832C26.3481 3.06832 27.2446 3.30365 27.9685 3.76983C28.6924 4.23825 29.2371 4.85236 29.6002 5.61214C29.9655 6.37193 30.147 7.18999 30.147 8.06632V8.97849H21.3748V7.42755H28.5602L27.7758 8.19405C27.7758 7.56202 27.6838 7.01964 27.5023 6.57139C27.3208 6.1209 27.0429 5.77576 26.6731 5.53146C26.3011 5.28941 25.8371 5.16614 25.2768 5.16614C24.7165 5.16614 24.2436 5.29388 23.8536 5.54938C23.4636 5.80489 23.17 6.17246 22.9683 6.65209C22.7665 7.13171 22.668 7.70772 22.668 8.37561C22.668 8.99643 22.7643 9.54554 22.9593 10.0252C23.1543 10.5048 23.4524 10.8836 23.8536 11.157C24.2548 11.4304 24.7657 11.5671 25.3866 11.5671C26.0074 11.5671 26.5117 11.4416 26.8994 11.1928C27.2894 10.9441 27.5381 10.637 27.648 10.2717H29.9834C29.8377 10.953 29.5575 11.5492 29.1451 12.0602C28.7328 12.5712 28.2061 12.9657 27.5673 13.2458C26.9285 13.526 26.2024 13.665 25.3889 13.665V13.6627Z" fill="white"/>
<path d="M0 39.4504V23.5999H3.67338V30.3971H3.58661C3.58661 28.1603 4.05904 26.4345 5.00389 25.2197C5.96804 24.0049 7.3564 23.3975 9.16899 23.3975H9.7764V27.389H8.61943C7.34676 27.389 6.36333 27.7361 5.66915 28.4303C4.97497 29.1052 4.62788 30.0886 4.62788 31.3806V39.4504H0Z" fill="white"/>
<path d="M12.9262 39.4504V23.5999H17.5541V39.4504H12.9262ZM10.8147 27.013V23.5999H17.5541V27.013H10.8147ZM14.7195 22.038C13.8518 22.038 13.2058 21.8163 12.7816 21.3728C12.3766 20.91 12.1742 20.3315 12.1742 19.6373C12.1742 18.9239 12.3766 18.3454 12.7816 17.9019C13.2058 17.4391 13.8518 17.2077 14.7195 17.2077C15.5872 17.2077 16.2236 17.4391 16.6285 17.9019C17.0527 18.3454 17.2648 18.9239 17.2648 19.6373C17.2648 20.3315 17.0527 20.91 16.6285 21.3728C16.2236 21.8163 15.5872 22.038 14.7195 22.038Z" fill="white"/>
<path d="M28.3713 39.9711C27.2529 39.9711 26.2309 39.7686 25.3053 39.3637C24.399 38.9587 23.6084 38.3995 22.9335 37.6861C22.2586 36.9533 21.738 36.0952 21.3716 35.1118C21.0245 34.1284 20.851 33.0678 20.851 31.9301V31.2649C20.851 30.1272 21.0149 29.0666 21.3427 28.0832C21.6898 27.0998 22.1815 26.2417 22.8178 25.509C23.4735 24.7569 24.2544 24.1784 25.1607 23.7735C26.067 23.3493 27.0793 23.1372 28.1978 23.1372C29.4704 23.1372 30.5695 23.4168 31.4951 23.976C32.4207 24.5159 33.1438 25.3258 33.6644 26.4056C34.1851 27.4662 34.4743 28.7774 34.5322 30.3393L33.3173 29.2113V18.3357H37.9742V39.4504H34.3008V32.8846H34.9371C34.8793 34.3887 34.5611 35.671 33.9826 36.7316C33.4234 37.7921 32.6617 38.602 31.6976 39.1612C30.7334 39.7011 29.6247 39.9711 28.3713 39.9711ZM29.5283 36.0952C30.2417 36.0952 30.8877 35.941 31.4662 35.6324C32.064 35.3046 32.5364 34.8322 32.8835 34.2151C33.2499 33.5981 33.433 32.8557 33.433 31.988V30.9178C33.433 30.0693 33.2499 29.3559 32.8835 28.7774C32.5171 28.1989 32.035 27.7554 31.4373 27.4469C30.8395 27.1384 30.1935 26.9841 29.4993 26.9841C28.728 26.9841 28.0338 27.1866 27.4168 27.5915C26.819 27.9772 26.3466 28.5171 25.9995 29.2113C25.6524 29.8862 25.4789 30.6768 25.4789 31.583C25.4789 32.5086 25.6524 33.3089 25.9995 33.9838C26.3466 34.6587 26.8287 35.1793 27.4457 35.5457C28.0628 35.912 28.757 36.0952 29.5283 36.0952Z" fill="white"/>
<path d="M49.4318 40C48.082 40 46.8864 39.7686 45.8452 39.3058C44.8232 38.843 43.9651 38.226 43.2709 37.4547C42.596 36.6641 42.0754 35.7867 41.709 34.8226C41.3619 33.8391 41.1884 32.8364 41.1884 31.8144V31.236C41.1884 30.1754 41.3619 29.163 41.709 28.1989C42.0754 27.2155 42.596 26.3381 43.2709 25.5668C43.9458 24.7955 44.7846 24.1881 45.7873 23.7446C46.8093 23.2818 47.9663 23.0504 49.2582 23.0504C50.9551 23.0504 52.382 23.436 53.539 24.2074C54.7153 24.9594 55.6119 25.9525 56.229 27.1866C56.846 28.4014 57.1545 29.7319 57.1545 31.1781V32.74H43.1263V30.1079H54.3489L52.8448 31.3227C52.8448 30.3779 52.7098 29.568 52.4399 28.8931C52.1699 28.2182 51.765 27.7072 51.2251 27.3601C50.7044 26.9937 50.0488 26.8105 49.2582 26.8105C48.4483 26.8105 47.7638 26.9937 47.2046 27.3601C46.6454 27.7265 46.2212 28.2664 45.9319 28.9799C45.6427 29.674 45.4981 30.5321 45.4981 31.5541C45.4981 32.499 45.6331 33.3281 45.903 34.0416C46.173 34.7358 46.5972 35.2757 47.1757 35.6614C47.7542 36.047 48.5062 36.2398 49.4318 36.2398C50.2802 36.2398 50.9744 36.0759 51.5143 35.7481C52.0542 35.4203 52.4206 35.0154 52.6134 34.5333H56.8653C56.6339 35.5939 56.1808 36.5387 55.5059 37.3679C54.831 38.1971 53.9825 38.843 52.9605 39.3058C51.9385 39.7686 50.7623 40 49.4318 40Z" fill="white"/>
<path d="M57.044 0.58048L49.975 5.57846V0.58048H49.8854L42.8165 5.57846V0.58048H42.7291L35.6131 5.71295V13.3556H35.7207L42.8165 8.45623V13.3556H42.9241L49.975 8.45623V13.3556H50.0804L57.1336 8.36882V0.58048H57.044Z" fill="white"/>
</g>
<defs>
<clipPath id="clip0_42_900">
<rect width="57.1545" height="40" fill="white"/>
</clipPath>
</defs>
</svg>
